Coordinates
version=1
nRows=24
nColumns=38
inDegrees=no

Units are S.I. units (second, meters, Newtons, ...)
If the header above contains a line with 'inDegrees', this indicates whether rotational values are in degrees (yes) or radians (no).

endheader
time	pelvis_tilt	pelvis_list	pelvis_rotation	pelvis_tx	pelvis_ty	pelvis_tz	hip_flexion_r	hip_adduction_r	hip_rotation_r	knee_angle_r	ankle_angle_r	subtalar_angle_r	mtp_angle_r	hip_flexion_l	hip_adduction_l	hip_rotation_l	knee_angle_l	ankle_angle_l	subtalar_angle_l	mtp_angle_l	lumbar_extension	lumbar_bending	lumbar_rotation	arm_flex_r	arm_add_r	arm_rot_r	elbow_flex_r	pro_sup_r	wrist_flex_r	wrist_dev_r	arm_flex_l	arm_add_l	arm_rot_l	elbow_flex_l	pro_sup_l	wrist_flex_l	wrist_dev_l
10	-2.17032	1.36199	1.10917	0.854181	1.2458	1.02702	0.219125	0.0801219	-0.0524649	0.00973588	-0.329538	0	0	0.183842	-0.374404	-0.2407	0.410351	-0.292686	0	0	0.129214	0.212825	-0.204481	0.477521	-0.263925	0.7291	0.282383	1.5708	0	0	-0.240389	-0.264059	0.29513	0.584689	1.32637	0	0
10.01	-2.16724	1.366	1.09497	0.854536	1.24794	1.02744	0.218952	0.0799214	-0.0544636	0.013947	-0.331364	0	0	0.176445	-0.375306	-0.235379	0.433435	-0.285837	0	0	0.123017	0.213493	-0.209348	0.470018	-0.262074	0.746556	0.274055	1.5708	0	0	-0.238955	-0.264822	0.292143	0.585641	1.32673	0	0
10.02	-2.16571	1.36947	1.08079	0.854892	1.25011	1.02777	0.21964	0.0797698	-0.0538535	0.0182049	-0.333247	0	0	0.168837	-0.376059	-0.231382	0.457204	-0.279048	0	0	0.116935	0.214314	-0.21253	0.460938	-0.261452	0.756774	0.268169	1.5708	0	0	-0.237908	-0.26533	0.287975	0.587405	1.32765	0	0
10.03	-2.17212	1.37125	1.07249	0.855431	1.25219	1.02791	0.222729	0.0788399	-0.0500097	0.0223472	-0.334868	0	0	0.162055	-0.375798	-0.229066	0.480636	-0.274552	0	0	0.114084	0.214933	-0.212812	0.448722	-0.262993	0.757665	0.264645	1.5708	0	0	-0.237029	-0.26539	0.28548	0.588529	1.32902	0	0
10.04	-2.18032	1.37234	1.06605	0.856094	1.25435	1.02795	0.22672	0.0775342	-0.0457084	0.0263991	-0.336946	0	0	0.156092	-0.375119	-0.225884	0.504236	-0.26999	0	0	0.112437	0.215534	-0.212708	0.435156	-0.265873	0.754303	0.262643	1.5708	0	0	-0.236374	-0.265339	0.282843	0.590168	1.3299	0	0
10.05	-2.18668	1.37315	1.05905	0.85683	1.25665	1.02793	0.230814	0.0765858	-0.0421893	0.0302981	-0.339287	0	0	0.150978	-0.374483	-0.21981	0.527944	-0.266452	0	0	0.111265	0.216288	-0.213442	0.420558	-0.26953	0.745284	0.262128	1.5708	0	0	-0.235803	-0.265638	0.279834	0.592677	1.33038	0	0
10.06	-2.19016	1.37367	1.05011	0.857653	1.25906	1.02785	0.235057	0.0763042	-0.0402505	0.0345842	-0.341676	0	0	0.146324	-0.374156	-0.211551	0.551407	-0.264268	0	0	0.110168	0.217443	-0.21447	0.404241	-0.274407	0.727944	0.264691	1.5708	0	0	-0.235119	-0.266114	0.276732	0.595908	1.33178	0	0
10.07	-2.19093	1.37425	1.03932	0.858566	1.26162	1.02774	0.238984	0.076205	-0.0396001	0.0387415	-0.343965	0	0	0.141633	-0.37359	-0.201252	0.573824	-0.264735	0	0	0.108546	0.218955	-0.21557	0.386486	-0.280299	0.70195	0.270034	1.5708	0	0	-0.234107	-0.266935	0.274131	0.599904	1.33547	0	0
10.08	-2.19079	1.37475	1.0282	0.85957	1.26433	1.02762	0.242702	0.0760056	-0.037879	0.0421973	-0.346269	0	0	0.137149	-0.372588	-0.190028	0.595008	-0.268014	0	0	0.106734	0.220725	-0.216481	0.367877	-0.286696	0.670147	0.276483	1.5708	0	0	-0.232941	-0.267913	0.271572	0.60488	1.34037	0	0
10.09	-2.19085	1.37462	1.0175	0.860679	1.26712	1.02742	0.246981	0.0759289	-0.0359017	0.0453848	-0.348774	0	0	0.133292	-0.371465	-0.178965	0.61495	-0.273157	0	0	0.105644	0.222923	-0.216755	0.348222	-0.293702	0.635072	0.283238	1.5708	0	0	-0.23175	-0.26883	0.269047	0.610529	1.34597	0	0
10.1	-2.19111	1.37417	1.00759	0.861866	1.27002	1.02715	0.251667	0.0758624	-0.0343569	0.0486004	-0.351227	0	0	0.129912	-0.37018	-0.168307	0.633131	-0.279708	0	0	0.105119	0.22508	-0.216609	0.327704	-0.300917	0.597741	0.289902	1.5708	0	0	-0.230076	-0.269989	0.267023	0.616039	1.352	0	0
10.11	-2.19184	1.37361	0.998946	0.863166	1.27305	1.02682	0.256668	0.0755664	-0.0335381	0.0519017	-0.353551	0	0	0.126726	-0.3685	-0.158321	0.648979	-0.28731	0	0	0.104949	0.227223	-0.216705	0.306657	-0.308111	0.556386	0.297429	1.5708	0	0	-0.228489	-0.271586	0.265579	0.622413	1.35771	0	0
10.12	-2.19161	1.37331	0.989994	0.864569	1.27627	1.02651	0.261399	0.0750404	-0.0323082	0.0547586	-0.35651	0	0	0.123031	-0.366381	-0.149536	0.661893	-0.296229	0	0	0.103276	0.229458	-0.214078	0.281779	-0.316335	0.498469	0.309828	1.5708	0	0	-0.224937	-0.273766	0.265866	0.629827	1.36408	0	0
10.13	-2.18843	1.3737	0.97874	0.866082	1.27965	1.02623	0.264918	0.0742162	-0.0290242	0.0564553	-0.359184	0	0	0.118018	-0.363846	-0.141961	0.671397	-0.303088	0	0	0.102123	0.232486	-0.214703	0.262391	-0.322769	0.457102	0.314305	1.5708	0	0	-0.221642	-0.275233	0.267489	0.635496	1.36816	0	0
10.14	-2.1853	1.37391	0.968545	0.867749	1.28312	1.02594	0.268155	0.0729645	-0.0232013	0.0570937	-0.362419	0	0	0.113047	-0.360702	-0.134579	0.67754	-0.31032	0	0	0.101767	0.23544	-0.215781	0.242341	-0.329122	0.414642	0.31933	1.5708	0	0	-0.218023	-0.27666	0.270165	0.640833	1.37329	0	0
10.15	-2.18431	1.37312	0.960835	0.869473	1.28677	1.02553	0.273157	0.0722114	-0.0209574	0.0598049	-0.365185	0	0	0.109228	-0.357409	-0.128017	0.681216	-0.315602	0	0	0.102867	0.238375	-0.217026	0.22221	-0.335274	0.373194	0.324218	1.5708	0	0	-0.214889	-0.278428	0.272628	0.646898	1.37761	0	0
10.16	-2.1835	1.3715	0.953623	0.871269	1.29059	1.02501	0.279448	0.0718499	-0.0210026	0.0630113	-0.367908	0	0	0.106333	-0.354377	-0.122628	0.682751	-0.317122	0	0	0.105019	0.241666	-0.218505	0.20266	-0.341236	0.333229	0.328071	1.5708	0	0	-0.212008	-0.280337	0.27493	0.653362	1.38144	0	0
10.17	-2.18005	1.36982	0.944567	0.873176	1.29455	1.0245	0.285257	0.0713251	-0.0198744	0.0648427	-0.371251	0	0	0.103361	-0.351592	-0.118229	0.68175	-0.314599	0	0	0.107197	0.245377	-0.220761	0.184101	-0.346866	0.295124	0.330488	1.5708	0	0	-0.209222	-0.282146	0.276988	0.65995	1.38466	0	0
10.18	-2.17786	1.36741	0.93712	0.875106	1.2987	1.02389	0.291902	0.0709025	-0.0186753	0.0665008	-0.374955	0	0	0.101585	-0.34891	-0.11473	0.678925	-0.308994	0	0	0.110231	0.249161	-0.223535	0.166664	-0.352095	0.259474	0.33147	1.5708	0	0	-0.206832	-0.283925	0.278251	0.666959	1.38738	0	0
10.19	-2.17672	1.36457	0.931188	0.877082	1.30307	1.02318	0.299033	0.0707286	-0.0172601	0.0686272	-0.378444	0	0	0.100881	-0.346163	-0.111938	0.674566	-0.301475	0	0	0.113699	0.252867	-0.226704	0.15028	-0.356818	0.225061	0.331355	1.5708	0	0	-0.204752	-0.285826	0.278787	0.674725	1.39061	0	0
10.2	-2.1762	1.36172	0.925479	0.878989	1.3077	1.02241	0.306753	0.0706301	-0.0174485	0.0715625	-0.381942	0	0	0.100523	-0.343124	-0.11008	0.668427	-0.293634	0	0	0.11649	0.256243	-0.229186	0.135141	-0.3608	0.191027	0.330409	1.5708	0	0	-0.202676	-0.287993	0.27822	0.683276	1.39511	0	0
10.21	-2.17277	1.35974	0.916769	0.880927	1.31256	1.02168	0.313323	0.0702577	-0.015591	0.0735878	-0.385879	0	0	0.0993009	-0.339794	-0.109405	0.660089	-0.286333	0	0	0.117032	0.259467	-0.23105	0.121504	-0.364141	0.156902	0.328896	1.5708	0	0	-0.200552	-0.290258	0.275969	0.693173	1.40026	0	0
10.22	-2.16749	1.3579	0.906984	0.88304	1.31763	1.02091	0.319346	0.0696306	-0.013074	0.0746021	-0.390319	0	0	0.0985072	-0.336441	-0.109193	0.650112	-0.279903	0	0	0.116982	0.262676	-0.233205	0.109216	-0.367107	0.126141	0.326043	1.5708	0	0	-0.19846	-0.292392	0.27229	0.70364	1.40489	0	0
10.23	-2.16274	1.35598	0.898462	0.885237	1.32289	1.02008	0.325528	0.0686503	-0.0108052	0.075307	-0.394959	0	0	0.0986001	-0.33276	-0.108329	0.639106	-0.273932	0	0	0.116838	0.265354	-0.235772	0.0983885	-0.369458	0.0987533	0.321293	1.5708	0	0	-0.196727	-0.294867	0.267719	0.715121	1.40877	0	0
